<?xml version="1.0" encoding="UTF-8"?>
<svg width="128px" height="128px" viewBox="0 0 128 128" version="1.1" xmlns="http://www.w3.org/2000/svg" xmlns:xlink="http://www.w3.org/1999/xlink">
    <title>画框 4</title>
    <defs>
        <path d="M97.035,65.973 L106.5,95 L97.036603,95 L74.0992738,95.0001295 L60.2532541,95 L55.5335165,95 L41.6861967,95.0002591 L31.0267116,95 L21.5,94.9994818 L31.026,65.781 L31.0267116,38.8235187 L55.5335165,38.8235187 L55.533,47.934 L60.253,47.934 L60.2532541,20 L97.035563,20 Z" id="path-1"></path>
        <polygon id="path-2" points="0 0 36.7823089 0 36.7823089 75 0 75"></polygon>
        <polygon id="path-4" points="0 0 24.5068049 0 24.5068049 56.1764813 0 56.1764813"></polygon>
        <polygon id="path-6" points="0 0 32.4126871 0 32.4126871 47.0650152 0 47.0650152"></polygon>
    </defs>
    <g id="画框-4" stroke="none" fill="none" xlink:href="#path-1" fill-rule="evenodd" stroke-width="1">
        <g id="编组" transform="translate(21.5, 20)">
            <g transform="translate(38.7533, 0)">
                <mask id="mask-3" fill="white">
                    <use xlink:href="#path-2"></use>
                </mask>
                <g id="Clip-2"></g>
                <path d="M12.5927274,0.814211983 C12.2391014,-0.271403994 10.6971878,-0.271403994 10.3422617,0.814211983 L0,32.534149 L13.8460197,75.0001295 L36.7823089,75.0001295 L12.5927274,0.814211983 Z" id="Fill-1" fill="#006AFF" mask="url(#mask-3)"></path>
            </g>
            <g transform="translate(9.5267, 18.8235)">
                <mask id="mask-5" fill="white">
                    <use xlink:href="#path-4"></use>
                </mask>
                <g id="Clip-4"></g>
                <path d="M20.3022952,0.814211983 C19.9486692,-0.271403994 18.4067556,-0.271403994 18.0531296,0.814211983 L0,56.1767404 L10.659485,56.1767404 L24.5068049,13.7094643 L20.3022952,0.814211983 Z" id="Fill-3" fill="#006AFF" mask="url(#mask-5)"></path>
            </g>
            <path d="M10.929905,41.4788214 L0,74.9994818 L9.52710164,74.9994818 L16.6568267,53.1342951 L12.8566469,41.4788214 C12.5537245,40.5486636 11.2328273,40.5486636 10.929905,41.4788214" id="Fill-5" fill="#00DCFF"></path>
            <path d="M72.4033723,36.3699489 C72.0484462,35.2830374 70.5052325,35.2830374 70.1516065,36.3699489 L66.5451409,47.4282043 L75.536603,75 L85,75 L72.4033723,36.3699489 Z" id="Fill-7" fill="#00DCFF"></path>
            <g transform="translate(20.1863, 27.935)">
                <mask id="mask-7" fill="white">
                    <use xlink:href="#path-6"></use>
                </mask>
                <g id="Clip-10"></g>
                <path d="M15.0811107,0.815183596 L0,47.0652743 L32.4126871,47.0652743 L17.3315764,0.815183596 C16.9779504,-0.271727865 15.4347367,-0.271727865 15.0811107,0.815183596" id="Fill-9" fill="#00DCFF" mask="url(#mask-7)"></path>
            </g>
        </g>
    </g>
</svg>